<?xml version="1.0" encoding="utf-8"?>
<!-- Generator: Adobe Illustrator 22.1.0, SVG Export Plug-In . SVG Version: 6.00 Build 0)  -->
<svg version="1.1" id="Layer_1" xmlns="http://www.w3.org/2000/svg" xmlns:xlink="http://www.w3.org/1999/xlink" x="0px" y="0px"
	 viewBox="0 0 327.7 360" style="enable-background:new 0 0 327.7 360;" xml:space="preserve">
<style type="text/css">
	.st0{fill:#9B27A5;}
</style>
<path class="st0" d="M5.8,122.4L83.1,10.9c0.7-1.1,2-1.7,3.3-1.7h156.9c1.3,0,2.5,0.6,3.3,1.7l8.9,12.6c0.9,1.2,1,2.9,0.3,4.2
	l-23.8,44.8c-1.4,2.6-5,2.9-6.7,0.5l-6.9-9.1c-0.8-1-1.9-1.6-3.2-1.6H114.6c-1.3,0-2.6,0.6-3.3,1.7l-40.2,58.4
	c-0.9,1.4-0.9,3.2,0,4.6L161.7,257c1.6,2.3,5,2.3,6.6,0l51.3-73.7c1.8-2.7-0.1-6.3-3.3-6.3h-43.9c-3,0-5-3.2-3.5-5.9l23.7-44.5
	c0.7-1.3,2.1-2.1,3.5-2.1h121.3c3.2,0,5.1,3.6,3.3,6.3L168,349.3c-1.6,2.3-5,2.3-6.6,0L5.8,127C4.8,125.6,4.8,123.8,5.8,122.4z"/>
</svg>
